<?xml version="1.0" encoding="utf-8"?>
<!-- Generator: Adobe Illustrator 21.1.0, SVG Export Plug-In . SVG Version: 6.00 Build 0)  -->
<svg version="1.1" id="Слой_1" xmlns="http://www.w3.org/2000/svg" xmlns:xlink="http://www.w3.org/1999/xlink" x="0px" y="0px"
	 viewBox="0 0 169 45" style="enable-background:new 0 0 169 45;" xml:space="preserve">
<style type="text/css">
	.st0{fill:#FFA000;}
	.st1{fill:#FFFFFF;}
</style>
<path class="st0" d="M37.3,36.4l-3.8,2.2V17.3h-6.9v12.6H13.8V17.3H6.9v21l-3.3-1.9C1.4,35.1,0,32.7,0,30.1V14.9
	c0-2.6,1.4-5,3.6-6.3L16.9,1c2.3-1.3,5-1.3,7.3,0l13.2,7.6c2.2,1.3,3.6,3.7,3.6,6.3v15.2C41,32.7,39.6,35.1,37.3,36.4z M22,8.6
	l-1.9-3.4l-1.9,3.4l-3.9,0.7l2.7,2.8L16.6,16l3.6-1.6l3.6,1.6l-0.5-3.8l2.7-2.8L22,8.6z M26.6,42.6L24.1,44c-2.3,1.3-5,1.3-7.3,0
	l-3-1.7v-6h12.8L26.6,42.6L26.6,42.6z"/>
<path id="hotello" class="st1" d="M64.6,16.2c-1.4,0-2.8,0.3-4,1.1c-1.1,0.7-2,1.7-2.5,3V10.2h-4.8v25.1h4.8v-10
	c-0.1-1.4,0.3-2.7,1.2-3.8c0.8-0.9,2-1.4,3.3-1.3c1.2-0.1,2.3,0.4,3.2,1.2c0.8,1,1.2,2.2,1.2,3.5v10.4h4.8V24.4
	c0.1-2.2-0.6-4.3-1.9-6C68.4,16.9,66.5,16.1,64.6,16.2L64.6,16.2L64.6,16.2z M84.6,16.3c-1.7,0-3.4,0.4-4.9,1.2
	c-1.4,0.8-2.6,1.9-3.4,3.3c-0.9,1.6-1.3,3.3-1.3,5.1c0,1.8,0.4,3.6,1.3,5.1c0.8,1.4,2,2.6,3.4,3.3c3.1,1.6,6.8,1.6,9.9,0
	c1.4-0.8,2.6-1.9,3.4-3.3c0.9-1.6,1.3-3.3,1.3-5.1c0-1.8-0.4-3.6-1.3-5.1c-0.8-1.4-2-2.6-3.4-3.3C88,16.6,86.3,16.2,84.6,16.3
	L84.6,16.3z M84.6,20.4c1.3,0,2.5,0.5,3.4,1.4c1,1.1,1.5,2.6,1.4,4.1c0.1,1.5-0.4,3-1.4,4.1c-1.9,1.9-4.9,1.9-6.8,0
	c-1-1.1-1.5-2.6-1.4-4.1c-0.1-1.5,0.4-3,1.4-4.1C82.1,20.9,83.3,20.4,84.6,20.4L84.6,20.4z M105.8,31.2c-0.7,0.1-1.3-0.1-1.8-0.5
	c-0.4-0.5-0.6-1.2-0.5-1.9v-8.2h4.2v-4h-4.2v-4.6h-4.8v4.6H96v4h2.6v8.1c0,2.4,0.6,4.1,1.7,5.1c1.4,1.1,3.1,1.6,4.8,1.5h2.5v-4.1
	L105.8,31.2L105.8,31.2z M128.8,25.2c0-1.6-0.4-3.2-1.1-4.6c-0.8-1.3-1.9-2.4-3.2-3.2c-1.5-0.8-3.2-1.2-4.9-1.2
	c-1.7,0-3.4,0.4-4.9,1.2c-1.4,0.8-2.6,1.9-3.3,3.3c-0.8,1.6-1.2,3.3-1.2,5.1c0,1.8,0.4,3.5,1.2,5.1c0.8,1.4,1.9,2.6,3.3,3.3
	c2.9,1.5,6.2,1.6,9.1,0.3c1.2-0.5,2.3-1.4,3.1-2.4c0.8-1,1.4-2.2,1.6-3.5h-5.1c-0.2,0.9-0.7,1.7-1.4,2.2c-0.8,0.6-1.8,0.8-2.8,0.8
	c-1.2,0-2.3-0.4-3.1-1.2c-0.9-1-1.4-2.3-1.4-3.7h13.8C128.7,26.3,128.8,25.7,128.8,25.2L128.8,25.2L128.8,25.2z M124,24.7h-9.1
	c0-1.3,0.5-2.6,1.5-3.5c0.9-0.8,2.1-1.2,3.3-1.2c1.2,0,2.3,0.4,3.2,1.2C123.7,22.1,124.1,23.4,124,24.7L124,24.7L124,24.7z
	 M132.2,10.2v25.1h4.8V10.2L132.2,10.2L132.2,10.2z M141.3,10.2v25.1h4.8V10.2L141.3,10.2L141.3,10.2z M159.1,16.3
	c-1.7,0-3.4,0.4-4.9,1.2c-1.4,0.8-2.6,1.9-3.4,3.3c-0.9,1.6-1.3,3.3-1.3,5.1c0,1.8,0.4,3.6,1.3,5.1c0.8,1.4,2,2.6,3.4,3.3
	c3.1,1.6,6.8,1.6,9.9,0c1.4-0.8,2.6-1.9,3.4-3.3c0.9-1.6,1.3-3.3,1.3-5.1c0-1.8-0.4-3.6-1.3-5.1c-0.8-1.4-2-2.6-3.4-3.3
	C162.5,16.6,160.8,16.2,159.1,16.3L159.1,16.3L159.1,16.3z M159.1,20.4c1.3,0,2.5,0.5,3.4,1.4c1,1.1,1.5,2.6,1.4,4.1
	c0.1,1.5-0.4,3-1.4,4.1c-1.9,1.9-4.9,1.9-6.8,0c-1-1.1-1.5-2.6-1.4-4.1c-0.1-1.5,0.4-3,1.4-4.1C156.6,20.9,157.8,20.4,159.1,20.4
	L159.1,20.4L159.1,20.4z"/>
</svg>
